<svg width="411" height="82" viewBox="0 0 411 82" fill="none" xmlns="http://www.w3.org/2000/svg">
<path d="M-23.7598 35.9522C-1.38714 31.0464 118.886 18.2721 220.776 42.5314" stroke="#80ACFF" stroke-width="0.850304"/>
<path d="M127.137 28.836C147.81 24.3028 222.428 -3.85223 316.578 18.5644" stroke="#80ACFF" stroke-width="0.785714"/>
<path d="M216.152 40.5554C340.053 5.03117 475.217 4.33813 487.001 37.0893" stroke="#80ACFF" stroke-width="0.911068"/>
<path d="M60.2182 69.5957C60.4519 64.3803 63.8592 59.9648 63.8944 59.9198C64.0261 59.7518 64.0184 59.5135 63.876 59.3545C63.7337 59.1954 63.4978 59.1612 63.3162 59.2735C60.5149 61.0053 58.9016 63.8164 58.0415 65.8697C57.8849 66.2437 57.747 66.6053 57.6261 66.9488C57.7134 65.0099 58.0906 62.4318 59.2893 60.1503C59.3828 59.9725 59.344 59.7539 59.1951 59.619C59.0461 59.4842 58.8248 59.4672 58.6571 59.5777C57.7817 60.1547 57.0346 60.9181 56.4208 61.8595C56.6289 59.065 57.8797 55.3339 57.895 55.2885C57.9583 55.1012 57.8891 54.8946 57.7256 54.7833C57.5621 54.6721 57.3446 54.6834 57.1935 54.8111C56.0621 55.7672 55.1402 57.2988 54.4532 59.3632C54.1135 60.3841 53.8748 61.4049 53.708 62.2984C52.9673 60.8313 51.9799 59.686 50.7588 58.8811C50.5911 58.7706 50.3697 58.7876 50.2208 58.9224C50.0719 59.0573 50.0331 59.2759 50.1266 59.4537C51.4507 61.9738 51.8382 64.8371 51.9149 66.9354C51.7706 66.5133 51.6019 66.0625 51.4056 65.5939C50.4878 63.4029 48.7667 60.4036 45.7788 58.5564C45.5973 58.4441 45.3614 58.4783 45.219 58.6374C45.0766 58.7965 45.0689 59.0347 45.2006 59.2028C45.2339 59.2453 48.0742 62.9178 48.9175 67.6203C48.6989 67.1875 48.4462 66.7163 48.1604 66.2294C46.6465 63.6494 45.0116 61.9653 43.3011 61.2238C43.1196 61.1451 42.9081 61.1971 42.7836 61.3508C42.6592 61.5045 42.6525 61.7222 42.7672 61.8833C43.8275 63.3726 46.4383 67.4856 46.5388 69.5957" stroke="#80ACFF" stroke-width="0.5"/>
<path d="M25.9922 76.3304C-8.57924 91.2589 32.2779 110.902 -7.00781 117.187" stroke="#80ACFF" stroke-width="0.5"/>
<g clip-path="url(#clip0_3848_102610)">
<path d="M2.79041 38.1403H-11.3463C-11.4731 38.1402 -11.5958 38.0957 -11.693 38.0143C-11.7903 37.933 -11.8558 37.8201 -11.8782 37.6954L-14.4231 23.5581C-14.4371 23.4803 -14.4339 23.4003 -14.4136 23.3239C-14.3933 23.2474 -14.3565 23.1764 -14.3058 23.1157C-14.2551 23.055 -14.1917 23.0062 -14.12 22.9728C-14.0484 22.9393 -13.9703 22.9219 -13.8912 22.9219H5.33527C5.41435 22.9219 5.49246 22.9393 5.56409 22.9728C5.63573 23.0062 5.69914 23.055 5.74986 23.1157C5.80058 23.1764 5.83737 23.2474 5.85764 23.3239C5.87791 23.4003 5.88116 23.4803 5.86716 23.5581L3.32284 37.6954C3.30039 37.8202 3.23475 37.9332 3.13741 38.0145C3.04008 38.0958 2.91725 38.1404 2.79041 38.1403ZM-10.8945 37.0592H2.33851L4.69094 24.003H-13.2447L-10.8945 37.0592Z" fill="#80ACFF"/>
<path d="M7.00931 23.9981H-15.5631C-15.7877 23.9978 -16.003 23.9085 -16.1618 23.7497C-16.3205 23.5909 -16.4099 23.3756 -16.4102 23.1511V20.1473C-16.4097 19.9228 -16.3203 19.7077 -16.1616 19.549C-16.0028 19.3903 -15.7876 19.3011 -15.5631 19.3008H7.00931C7.23377 19.3011 7.44897 19.3903 7.60774 19.549C7.76651 19.7077 7.8559 19.9228 7.85633 20.1473V23.1516C7.8559 23.3761 7.76651 23.5912 7.60774 23.7499C7.44897 23.9085 7.23377 23.9978 7.00931 23.9981ZM-15.3291 22.917H6.77525V20.3813H-15.3291V22.917Z" fill="#80ACFF"/>
<path d="M-4.0059 20.3839H-4.04698C-4.1899 20.3732 -4.32269 20.3061 -4.41615 20.1974C-4.50961 20.0887 -4.55608 19.9474 -4.54536 19.8045C-4.45979 18.6613 -4.26687 17.5288 -3.96914 16.4218C-2.90395 12.4009 -0.532411 8.84815 2.77248 6.32232C2.82885 6.27916 2.89316 6.24752 2.96174 6.22922C3.03033 6.21091 3.10185 6.2063 3.17222 6.21563C3.2426 6.22497 3.31044 6.24807 3.37188 6.28363C3.43332 6.31919 3.48716 6.36649 3.53032 6.42286C3.57348 6.47922 3.60511 6.54353 3.62342 6.61212C3.64172 6.6807 3.64634 6.75223 3.63701 6.8226C3.62767 6.89297 3.60456 6.96081 3.56901 7.02226C3.53345 7.0837 3.48614 7.13754 3.42978 7.18069C0.314911 9.56091 -1.92031 12.9091 -2.92428 16.6985C-3.20387 17.7411 -3.38484 18.8075 -3.46482 19.8839C-3.47507 20.0203 -3.53659 20.1476 -3.63698 20.2404C-3.73738 20.3332 -3.8692 20.3845 -4.0059 20.3839Z" fill="#80ACFF"/>
<path d="M2.66135 14.0202C1.05097 13.9575 -0.519052 13.4983 -1.90946 12.6834C-2.01493 12.6267 -2.09859 12.5366 -2.1473 12.4272C-2.21865 12.265 -3.87703 8.44774 -1.77541 5.06504C0.0435135 2.14234 4.04351 0.538013 10.1143 0.297473C10.1886 0.293943 10.2628 0.306075 10.3321 0.333081C10.4014 0.360087 10.4642 0.401363 10.5165 0.45423C10.5692 0.506544 10.6105 0.569158 10.638 0.638164C10.6654 0.70717 10.6783 0.781089 10.6759 0.855311C10.6635 1.24828 10.3105 10.5142 5.54081 13.264C4.6655 13.7681 3.6714 14.0291 2.66135 14.0202ZM-1.22459 11.8229C1.25 13.1104 3.34297 13.2823 4.99811 12.3283C8.61324 10.2434 9.40243 3.45099 9.55703 1.40666C4.20568 1.70612 0.706216 3.12504 -0.854865 5.62774C-2.42946 8.15477 -1.49432 11.1002 -1.22513 11.8223L-1.22459 11.8229Z" fill="#80ACFF"/>
</g>
<defs>
<clipPath id="clip0_3848_102610">
<rect width="28" height="38" fill="white" transform="translate(-17.1465 0.21875)"/>
</clipPath>
</defs>
</svg>
