<svg width="128" height="41" viewBox="0 0 128 41" fill="none" xmlns="http://www.w3.org/2000/svg">
<g id="logo">
<path d="M19.3496 0.368001H26.5256V32.246H19.3496V18.722H7.29758V32.246H0.121582V0.368001H7.29758V12.558H19.3496V0.368001Z" fill="white"/>
<path d="M48.0248 14.122C47.4115 13.9687 46.6908 13.8153 45.8628 13.662C45.0348 13.478 44.1455 13.386 43.1948 13.386C42.7655 13.386 42.2442 13.432 41.6308 13.524C41.0482 13.5853 40.6035 13.662 40.2968 13.754V32.246H33.4428V9.338C34.6695 8.90867 36.1108 8.51 37.7668 8.142C39.4535 7.74333 41.3242 7.544 43.3788 7.544C43.7468 7.544 44.1915 7.57467 44.7128 7.636C45.2342 7.66667 45.7555 7.728 46.2768 7.82C46.7982 7.88133 47.3195 7.97333 47.8408 8.096C48.3622 8.188 48.8068 8.31067 49.1748 8.464L48.0248 14.122Z" fill="white"/>
<path d="M62.8771 0C67.6304 0 71.2797 0.843333 73.8251 2.53C76.3704 4.186 77.6431 6.91533 77.6431 10.718C77.6431 14.5513 76.3551 17.3267 73.7791 19.044C71.2031 20.7307 67.5231 21.574 62.7391 21.574H60.4851V32.246H53.3091V0.828C54.8731 0.521334 56.5291 0.306667 58.2771 0.184C60.0251 0.0613335 61.5584 0 62.8771 0ZM63.3371 6.118C62.8158 6.118 62.2944 6.13333 61.7731 6.164C61.2824 6.19467 60.8531 6.22533 60.4851 6.256V15.456H62.7391C65.2231 15.456 67.0938 15.1187 68.3511 14.444C69.6084 13.7693 70.2371 12.512 70.2371 10.672C70.2371 9.78267 70.0684 9.04667 69.7311 8.464C69.4244 7.88133 68.9644 7.42133 68.3511 7.084C67.7684 6.716 67.0477 6.47067 66.1891 6.348C65.3304 6.19467 64.3797 6.118 63.3371 6.118Z" fill="white"/>
<path d="M90.8002 27.462C91.4748 27.462 92.1188 27.4467 92.7322 27.416C93.3455 27.3853 93.8362 27.3393 94.2042 27.278V22.08C93.9282 22.0187 93.5142 21.9573 92.9622 21.896C92.4102 21.8347 91.9042 21.804 91.4442 21.804C90.8002 21.804 90.1868 21.85 89.6042 21.942C89.0522 22.0033 88.5615 22.1413 88.1322 22.356C87.7028 22.5707 87.3655 22.862 87.1202 23.23C86.8748 23.598 86.7522 24.058 86.7522 24.61C86.7522 25.6833 87.1048 26.4347 87.8102 26.864C88.5462 27.2627 89.5428 27.462 90.8002 27.462ZM90.2482 7.406C92.2722 7.406 93.9588 7.636 95.3082 8.096C96.6575 8.556 97.7308 9.21533 98.5282 10.074C99.3562 10.9327 99.9388 11.9753 100.276 13.202C100.613 14.4287 100.782 15.7933 100.782 17.296V31.556C99.8008 31.7707 98.4362 32.016 96.6882 32.292C94.9402 32.5987 92.8242 32.752 90.3402 32.752C88.7762 32.752 87.3502 32.614 86.0622 32.338C84.8048 32.062 83.7162 31.6173 82.7962 31.004C81.8762 30.36 81.1708 29.532 80.6802 28.52C80.1895 27.508 79.9442 26.266 79.9442 24.794C79.9442 23.3833 80.2202 22.1873 80.7722 21.206C81.3548 20.2247 82.1215 19.4427 83.0722 18.86C84.0228 18.2773 85.1115 17.8633 86.3382 17.618C87.5648 17.342 88.8375 17.204 90.1562 17.204C91.0455 17.204 91.8275 17.25 92.5022 17.342C93.2075 17.4033 93.7748 17.4953 94.2042 17.618V16.974C94.2042 15.8087 93.8515 14.8733 93.1462 14.168C92.4408 13.4627 91.2142 13.11 89.4662 13.11C88.3008 13.11 87.1508 13.202 86.0162 13.386C84.8815 13.5393 83.9002 13.7693 83.0722 14.076L82.1982 8.556C82.5968 8.43333 83.0875 8.31067 83.6702 8.188C84.2835 8.03467 84.9428 7.912 85.6482 7.82C86.3535 7.69733 87.0895 7.60533 87.8562 7.544C88.6535 7.452 89.4508 7.406 90.2482 7.406Z" fill="white"/>
<path d="M127.878 8.05C126.498 12.7113 125.057 17.0813 123.554 21.16C122.051 25.2387 120.411 29.1947 118.632 33.028C117.988 34.408 117.344 35.5733 116.7 36.524C116.056 37.5053 115.351 38.3027 114.584 38.916C113.817 39.56 112.943 40.02 111.962 40.296C111.011 40.6027 109.892 40.756 108.604 40.756C107.531 40.756 106.534 40.6487 105.614 40.434C104.725 40.25 103.989 40.0353 103.406 39.79L104.602 34.316C105.307 34.5613 105.936 34.73 106.488 34.822C107.04 34.914 107.623 34.96 108.236 34.96C109.463 34.96 110.398 34.6227 111.042 33.948C111.717 33.304 112.284 32.3993 112.744 31.234C111.18 28.1673 109.616 24.7327 108.052 20.93C106.488 17.0967 105.016 12.8033 103.636 8.05H110.904C111.211 9.246 111.563 10.5493 111.962 11.96C112.391 13.34 112.836 14.7507 113.296 16.192C113.756 17.6027 114.216 18.9827 114.676 20.332C115.167 21.6813 115.627 22.908 116.056 24.012C116.455 22.908 116.869 21.6813 117.298 20.332C117.727 18.9827 118.141 17.6027 118.54 16.192C118.969 14.7507 119.368 13.34 119.736 11.96C120.135 10.5493 120.487 9.246 120.794 8.05H127.878Z" fill="white"/>
</g>
</svg>
