<svg width="88" height="89" viewBox="0 0 88 89" fill="none" xmlns="http://www.w3.org/2000/svg">
<g id="Orion_email-sent 1">
<path id="layer2" d="M64.625 85.7656C76.0159 85.7656 85.25 76.5315 85.25 65.1406C85.25 53.7498 76.0159 44.5156 64.625 44.5156C53.2341 44.5156 44 53.7498 44 65.1406C44 76.5315 53.2341 85.7656 64.625 85.7656Z" fill="#3B89FF"/>
<path id="opacity" opacity="0.25" d="M64.6258 44.516C61.5842 44.5009 58.5769 45.1588 55.8194 46.4425C53.0619 47.7262 50.6224 49.6038 48.6758 51.941C52.5856 48.2978 57.7569 46.3144 63.1001 46.4087C68.4434 46.503 73.5415 48.6675 77.3204 52.4464C81.0992 56.2253 83.2638 61.3234 83.3581 66.6666C83.4524 72.0099 81.469 77.1812 77.8258 81.091C81.1229 78.3881 83.5014 74.7299 84.6339 70.6197C85.7665 66.5095 85.5975 62.1493 84.1502 58.139C82.7029 54.1288 80.0484 50.6657 76.552 48.2261C73.0556 45.7865 68.8891 44.4903 64.6258 44.516Z" fill="white"/>
<path id="layer1" d="M64.625 44.5156C69.0892 44.5056 73.4346 45.9541 77 48.6406V17.0156H2.75V66.5156H44.1375C44.1375 66.1031 44 65.5531 44 65.1406C44 59.6705 46.173 54.4245 50.0409 50.5565C53.9089 46.6886 59.1549 44.5156 64.625 44.5156Z" fill="#E3EEFF"/>
<path id="opacity_2" opacity="0.14" d="M35.75 66.5156H44.1375C44.1375 66.1031 44 65.5531 44 65.1406C43.9984 60.9742 45.2587 56.9049 47.615 53.4687C49.9712 50.0326 53.3129 47.3905 57.2 45.8906H56.375C50.9049 45.8906 45.6589 48.0636 41.7909 51.9315C37.923 55.7995 35.75 61.0455 35.75 66.5156Z" fill="#000064"/>
<path id="opacity_3" opacity="0.14" d="M2.75 17.0156L39.875 45.3406L77 17.0156V19.0781L35.75 55.5156L2.75 23.2031V17.0156Z" fill="#000064"/>
<path id="stroke" d="M44 66.5156H2.75V17.0156H77V48.6406" stroke="#003D97" stroke-width="2.75757" stroke-miterlimit="10" stroke-linecap="round" stroke-linejoin="round"/>
<path id="stroke_2" d="M72.875 61.0156L61.875 72.0156L56.375 66.5156M2.75 17.0156L39.875 45.3406L77 17.0156H2.75Z" stroke="#003D97" stroke-width="2.75757" stroke-miterlimit="10" stroke-linecap="round" stroke-linejoin="round"/>
<path id="stroke_3" d="M64.625 85.7656C76.0159 85.7656 85.25 76.5315 85.25 65.1406C85.25 53.7498 76.0159 44.5156 64.625 44.5156C53.2341 44.5156 44 53.7498 44 65.1406C44 76.5315 53.2341 85.7656 64.625 85.7656Z" stroke="#003D97" stroke-width="2.75757" stroke-miterlimit="10" stroke-linecap="round" stroke-linejoin="round"/>
</g>
</svg>
