<svg width="122" height="40" viewBox="0 0 122 40" fill="none" xmlns="http://www.w3.org/2000/svg">
<path d="M1.81445 13.3889L2.4821 11.7455C2.23045 12.2847 2.01475 12.8394 1.81445 13.3889ZM20.7294 4.13023e-06C16.8823 0.00417896 13.1174 1.11336 9.88253 3.19559C6.64765 5.27782 4.07899 8.24546 2.4821 11.7455L15.0236 18.8071L17.1704 20.0294L17.6839 19.7418L27.3905 14.3801L27.5292 14.3031L37.3539 8.83863C35.5195 6.11569 33.0439 3.88543 30.1449 2.34417C27.246 0.802904 24.0126 -0.00210409 20.7294 4.13023e-06ZM17.1344 17.6413L5.35812 11.0059C6.79053 8.56672 8.78254 6.50317 11.1697 4.98563C13.5569 3.46809 16.2708 2.54007 19.0873 2.27819C21.9038 2.0163 24.7423 2.42805 27.3683 3.47946C29.9944 4.53086 32.3327 6.19176 34.1902 8.32506L17.1344 17.6413Z" fill="#00B0ED"/>
<path d="M35.3974 30.2294L4.42367 12.8398L2.49776 11.7305C2.16665 12.4599 1.88191 13.2095 1.64523 13.9748C0.275526 18.3726 0.461007 23.1078 2.17051 27.385C3.88002 31.6622 7.0094 35.2208 11.033 37.463C15.0566 39.7052 19.7292 40.4945 24.266 39.6982C28.8029 38.9018 32.9274 36.5685 35.9469 33.0901C36.4393 32.5299 36.8988 31.9417 37.3233 31.3285L35.3974 30.2294ZM20.7964 37.8098C18.0357 37.8067 15.3132 37.1642 12.8424 35.9327C10.3715 34.7012 8.21945 32.9142 6.55482 30.7118C4.8902 28.5094 3.75826 25.9514 3.24773 23.2383C2.73721 20.5252 2.86196 17.7307 3.61222 15.0738L33.9748 31.991C32.3045 33.8252 30.2695 35.2902 28.0002 36.2922C25.7308 37.2942 23.2772 37.8112 20.7964 37.8098Z" fill="#FF0000"/>
<path d="M36.2962 13.0586L24.3607 19.5142L23.4517 20.0278L24.4326 20.5414L36.2962 27.0175L37.3233 27.5825V12.5039L36.2962 13.0586ZM36.2962 26.0572L25.3159 20.074L36.2962 14.0857V26.0572Z" fill="#FFCC2E"/>
<path fill-rule="evenodd" clip-rule="evenodd" d="M116.707 23.1962V21.0391H120.933V18.9848H116.707V17.1668H121.139V15.1484H116.707H113.671V17.1668V18.9848V21.0391V23.1962V25.2196H116.707H121.262V23.1962H116.707Z" fill="black"/>
<path fill-rule="evenodd" clip-rule="evenodd" d="M82.9547 23.1974V21.0352H87.1865V18.9809H82.9547V17.1629H87.392V15.1445H82.9547H79.9194V17.1629V18.9809V21.0352V23.1974V25.2157H82.9547H87.5152V23.1974H82.9547Z" fill="black"/>
<path fill-rule="evenodd" clip-rule="evenodd" d="M107.257 19.6706V21.7249H108.587V22.8701C108.361 22.9266 105.336 23.62 104.37 21.2113C104.37 21.2113 103.415 18.8694 105.973 17.4519C105.973 17.4519 108.13 16.3888 111.067 18.1042V15.7366C111.067 15.7366 105.962 13.898 102.922 16.1577C102.922 16.1577 101.145 17.303 101.109 20.1636C101.079 21.0696 101.297 21.9665 101.74 22.7575C102.183 23.5486 102.833 24.2037 103.621 24.6523C103.621 24.6523 106.522 26.3214 111.278 24.5341V19.6706H107.257Z" fill="black"/>
<path fill-rule="evenodd" clip-rule="evenodd" d="M97.4784 15.9201C95.8247 14.9751 92.5687 15.1446 92.5687 15.1446H92.2451H89.5488V25.2261H94.9825C95.6228 25.2416 96.2614 25.1514 96.8724 24.959C97.6586 24.6761 98.3522 24.1834 98.8782 23.5343C99.4042 22.8852 99.7425 22.1044 99.8563 21.2767C100.054 20.2479 99.9315 19.1834 99.5064 18.2259C99.0814 17.2685 98.3738 16.4639 97.4784 15.9201ZM96.6824 21.4667C96.1688 23.2386 93.8783 23.1359 93.8783 23.1359H92.5687V17.1887H94.2018C94.5535 17.2162 94.8994 17.294 95.229 17.4198C95.5935 17.5847 95.9217 17.8204 96.1945 18.1131C97.1446 19.4535 96.8005 20.7015 96.6824 21.4667Z" fill="black"/>
<path fill-rule="evenodd" clip-rule="evenodd" d="M76.6686 15.0703H76.232V22.9588L69.3758 15.0703H68.1997V25.2237H69.5812V24.4687V17.4019L76.3655 25.2237H77.6187V15.0703H76.6686Z" fill="black"/>
<path fill-rule="evenodd" clip-rule="evenodd" d="M66.1402 20.8326V15.0703H64.6766V20.8326L64.6303 21.983C64.5558 22.3983 64.3745 22.7871 64.1044 23.1112C63.8343 23.4353 63.4846 23.6837 63.0896 23.8319C62.2064 24.1279 61.2508 24.1279 60.3677 23.8319C59.4535 23.3183 59.284 23.005 59.284 23.005C58.9296 22.5685 58.8526 21.5157 58.8423 20.8326V15.0703H57.3838V21.1305C57.3838 21.4489 57.4403 22.0447 57.4403 22.0447C57.5016 22.5887 57.6844 23.1121 57.9751 23.5761C58.2657 24.0401 58.6569 24.4329 59.1197 24.7255C60.2335 25.2723 61.4889 25.4624 62.7147 25.2699C63.2555 25.2028 63.7771 25.0273 64.2484 24.7537C64.7196 24.4801 65.1308 24.1142 65.4572 23.6778C66.243 22.6764 66.1402 20.8326 66.1402 20.8326Z" fill="black"/>
<path fill-rule="evenodd" clip-rule="evenodd" d="M55.8379 23.627L54.6105 21.7319C54.2337 21.2272 53.7915 20.7747 53.2957 20.3863C53.8035 20.185 54.2386 19.8351 54.5441 19.3823C54.8496 18.9296 55.0113 18.3952 55.008 17.849C55.0046 17.3028 54.8364 16.7704 54.5254 16.3214C54.2144 15.8724 53.7751 15.5278 53.2649 15.3327C52.5985 15.1356 51.9054 15.0438 51.2106 15.0605H49.1152V25.2242H50.5532V20.8023C51.6882 20.7355 51.7037 20.8485 51.945 20.9666C52.1879 21.1143 52.4151 21.2864 52.623 21.4802C52.9516 21.6086 55.1908 25.2036 55.1908 25.2036H56.9216L55.8379 23.627ZM51.6574 19.5184H50.5532V16.3342H51.7037C53.758 16.3958 53.4704 18.0752 53.4704 18.0752C53.3522 19.6519 51.6574 19.5184 51.6574 19.5184Z" fill="black"/>
<path fill-rule="evenodd" clip-rule="evenodd" d="M44.9037 15.0508H42.8853H41.4062V25.2196H42.8494V20.808H44.1744C44.7408 20.8264 45.3064 20.7518 45.8487 20.5871C46.3903 20.4311 46.868 20.1065 47.2125 19.6604C47.557 19.2143 47.7503 18.67 47.7643 18.1066C47.9338 15.1432 44.9037 15.0508 44.9037 15.0508ZM46.3212 18.0809C46.2544 19.6216 44.4774 19.5189 44.4774 19.5189H42.8853V16.3347H44.3901C44.7819 16.2968 45.1768 16.3623 45.5354 16.5247C45.8138 16.6668 46.0387 16.8952 46.1766 17.1756C46.3146 17.4561 46.3581 17.7737 46.3006 18.0809H46.3212Z" fill="black"/>
</svg>
