<svg width="38" height="40" viewBox="0 0 38 40" fill="none" xmlns="http://www.w3.org/2000/svg">
<path d="M1.81445 13.3889L2.4821 11.7455C2.23045 12.2847 2.01475 12.8394 1.81445 13.3889ZM20.7294 4.13023e-06C16.8823 0.00417896 13.1174 1.11336 9.88253 3.19559C6.64765 5.27782 4.07899 8.24546 2.4821 11.7455L15.0236 18.8071L17.1704 20.0294L17.6839 19.7418L27.3905 14.3801L27.5292 14.3031L37.3539 8.83863C35.5195 6.11569 33.0439 3.88543 30.1449 2.34417C27.246 0.802904 24.0126 -0.00210409 20.7294 4.13023e-06ZM17.1344 17.6413L5.35812 11.0059C6.79053 8.56672 8.78254 6.50317 11.1697 4.98563C13.5569 3.46809 16.2708 2.54007 19.0873 2.27819C21.9038 2.0163 24.7423 2.42805 27.3683 3.47946C29.9944 4.53086 32.3327 6.19176 34.1902 8.32506L17.1344 17.6413Z" fill="#00B0ED"/>
<path d="M35.3974 30.2294L4.42367 12.8398L2.49776 11.7305C2.16665 12.4599 1.88191 13.2095 1.64523 13.9748C0.275526 18.3726 0.461007 23.1078 2.17051 27.385C3.88002 31.6622 7.0094 35.2208 11.033 37.463C15.0566 39.7052 19.7292 40.4945 24.266 39.6982C28.8029 38.9018 32.9274 36.5685 35.9469 33.0901C36.4393 32.5299 36.8988 31.9417 37.3233 31.3285L35.3974 30.2294ZM20.7964 37.8098C18.0357 37.8067 15.3132 37.1642 12.8424 35.9327C10.3715 34.7012 8.21945 32.9142 6.55482 30.7118C4.8902 28.5094 3.75826 25.9514 3.24773 23.2383C2.73721 20.5252 2.86196 17.7307 3.61222 15.0738L33.9748 31.991C32.3045 33.8252 30.2695 35.2902 28.0002 36.2922C25.7308 37.2942 23.2772 37.8112 20.7964 37.8098Z" fill="#FF0000"/>
<path d="M36.2962 13.0586L24.3607 19.5142L23.4517 20.0278L24.4326 20.5414L36.2962 27.0175L37.3233 27.5825V12.5039L36.2962 13.0586ZM36.2962 26.0572L25.3159 20.074L36.2962 14.0857V26.0572Z" fill="#FFCC2E"/>
</svg>
