<svg width="24" height="24" viewBox="0 0 24 24" fill="none" xmlns="http://www.w3.org/2000/svg">
<g clip-path="url(#clip0_17799_35147)">
<g clip-path="url(#clip1_17799_35147)">
<path d="M0.793 0.785188C0.605451 0.97268 0.500057 1.22699 0.5 1.49219V12.5072C0.5 12.7724 0.605357 13.0268 0.792893 13.2143C0.98043 13.4018 1.23478 13.5072 1.5 13.5072H9.5C9.76522 13.5072 10.0196 13.4018 10.2071 13.2143C10.3946 13.0268 10.5 12.7724 10.5 12.5072V1.50719C10.5 1.24197 10.3946 0.987617 10.2071 0.800081C10.0196 0.612544 9.76522 0.507188 9.5 0.507188L1.5 0.492188C1.23481 0.492244 0.980493 0.597638 0.793 0.785188Z" fill="#0050C8"/>
<path d="M22.5 0.492188L14.5 0.506188C14.2348 0.506188 13.9804 0.611544 13.7929 0.799081C13.6054 0.986617 13.5 1.24097 13.5 1.50619V6.50619C13.5 6.7714 13.6054 7.02576 13.7929 7.21329C13.9804 7.40083 14.2348 7.50619 14.5 7.50619H22.5C22.7652 7.50619 23.0196 7.40083 23.2071 7.21329C23.3946 7.02576 23.5 6.7714 23.5 6.50619V1.49219C23.5 1.22697 23.3946 0.972617 23.2071 0.785081C23.0196 0.597544 22.7652 0.492188 22.5 0.492188Z" fill="#0050C8"/>
<path d="M10.207 23.2148C10.3945 23.0273 10.4999 22.773 10.5 22.5078V17.5078C10.5 17.2426 10.3946 16.9882 10.2071 16.8007C10.0196 16.6132 9.76522 16.5078 9.5 16.5078H1.5C1.23478 16.5078 0.98043 16.6132 0.792893 16.8007C0.605357 16.9882 0.5 17.2426 0.5 17.5078V22.4928C0.5 22.758 0.605357 23.0124 0.792893 23.1999C0.98043 23.3875 1.23478 23.4928 1.5 23.4928L9.5 23.5068C9.76505 23.507 10.0193 23.402 10.207 23.2148Z" fill="#0050C8"/>
<path d="M22.5 10.5078H14.5C14.2348 10.5078 13.9804 10.6132 13.7929 10.8007C13.6054 10.9882 13.5 11.2426 13.5 11.5078V22.5078C13.5 22.773 13.6054 23.0274 13.7929 23.2149C13.9804 23.4025 14.2348 23.5078 14.5 23.5078L22.5 23.4938C22.7652 23.4938 23.0196 23.3885 23.2071 23.2009C23.3946 23.0134 23.5 22.759 23.5 22.4938V11.5078C23.5 11.2426 23.3946 10.9882 23.2071 10.8007C23.0196 10.6132 22.7652 10.5078 22.5 10.5078Z" fill="#0050C8"/>
</g>
</g>
<defs>
<clipPath id="clip0_17799_35147">
<rect width="24" height="24" fill="white"/>
</clipPath>
<clipPath id="clip1_17799_35147">
<rect width="24" height="24" fill="white"/>
</clipPath>
</defs>
</svg>
