<svg width="24" height="24" viewBox="0 0 24 24" fill="none" xmlns="http://www.w3.org/2000/svg">
<g clip-path="url(#clip0_17799_35132)">
<path d="M23.3544 5.60978H22.2181C22.0864 5.05228 21.8621 4.52079 21.5547 4.03741L22.3475 3.24466C22.4028 3.18936 22.4467 3.1237 22.4766 3.05145C22.5065 2.97919 22.5219 2.90174 22.5219 2.82353C22.5219 2.74532 22.5065 2.66787 22.4766 2.59561C22.4467 2.52336 22.4028 2.4577 22.3475 2.40241L21.5975 1.65241C21.5422 1.5971 21.4765 1.55322 21.4043 1.52329C21.332 1.49335 21.2546 1.47795 21.1764 1.47795C21.0981 1.47795 21.0207 1.49335 20.9484 1.52329C20.8762 1.55322 20.8105 1.5971 20.7552 1.65241L19.9636 2.44628C19.4802 2.13885 18.9487 1.91461 18.3912 1.78291V0.646656C18.3913 0.568422 18.3759 0.490946 18.346 0.418653C18.3161 0.34636 18.2722 0.280669 18.2169 0.225332C18.1616 0.169995 18.096 0.126097 18.0237 0.0961468C17.9514 0.0661967 17.874 0.0507812 17.7957 0.0507813H16.6044C16.5261 0.0507812 16.4487 0.0661967 16.3764 0.0961468C16.3041 0.126097 16.2384 0.169995 16.1831 0.225332C16.1278 0.280669 16.084 0.34636 16.0541 0.418653C16.0242 0.490946 16.0088 0.568422 16.0089 0.646656V1.78291C15.4517 1.91473 14.9206 2.13896 14.4376 2.44628L13.6437 1.65353C13.5884 1.59822 13.5228 1.55435 13.4505 1.52441C13.3783 1.49448 13.3008 1.47907 13.2226 1.47907C13.1444 1.47907 13.0669 1.49448 12.9947 1.52441C12.9224 1.55435 12.8568 1.59822 12.8015 1.65353L12.0515 2.40353C11.9962 2.45883 11.9523 2.52448 11.9224 2.59674C11.8924 2.669 11.877 2.74644 11.877 2.82466C11.877 2.90287 11.8924 2.98031 11.9224 3.05257C11.9523 3.12483 11.9962 3.19048 12.0515 3.24578L12.8442 4.03853C12.5367 4.52189 12.3123 5.05338 12.1805 5.6109H11.0442C10.8863 5.6109 10.7348 5.67365 10.6231 5.78532C10.5115 5.897 10.4487 6.04847 10.4487 6.20641V7.39741C10.4487 7.55534 10.5115 7.70681 10.6231 7.81849C10.7348 7.93016 10.8863 7.9929 11.0442 7.9929H12.1805C12.3123 8.55044 12.5367 9.08192 12.8442 9.56528L12.0515 10.358C11.9962 10.4133 11.9523 10.479 11.9224 10.5512C11.8924 10.6235 11.877 10.7009 11.877 10.7792C11.877 10.8574 11.8924 10.9348 11.9224 11.0071C11.9523 11.0793 11.9962 11.145 12.0515 11.2003L12.8015 11.9503C12.8568 12.0056 12.9224 12.0495 12.9947 12.0794C13.0669 12.1093 13.1444 12.1247 13.2226 12.1247C13.3008 12.1247 13.3783 12.1093 13.4505 12.0794C13.5228 12.0495 13.5884 12.0056 13.6437 11.9503L14.4376 11.1557C14.921 11.4632 15.4524 11.6876 16.01 11.8194V12.9557C16.01 13.1136 16.0727 13.2651 16.1844 13.3767C16.2961 13.4884 16.4475 13.5512 16.6055 13.5512H17.7969C17.9548 13.5512 18.1063 13.4884 18.2179 13.3767C18.3296 13.2651 18.3924 13.1136 18.3924 12.9557V11.8194C18.9499 11.6876 19.4814 11.4632 19.9647 11.1557L20.7564 11.9484C20.8117 12.0037 20.8773 12.0476 20.9496 12.0775C21.0218 12.1075 21.0993 12.1229 21.1775 12.1229C21.2557 12.1229 21.3331 12.1075 21.4054 12.0775C21.4777 12.0476 21.5433 12.0037 21.5986 11.9484L22.3486 11.1984C22.4039 11.1431 22.4478 11.0775 22.4777 11.0052C22.5077 10.9329 22.5231 10.8555 22.5231 10.7773C22.5231 10.6991 22.5077 10.6216 22.4777 10.5494C22.4478 10.4771 22.4039 10.4115 22.3486 10.3562L21.5547 9.5634C21.8622 9.08002 22.0864 8.54854 22.2181 7.99103H23.3544C23.4326 7.99103 23.51 7.97563 23.5822 7.9457C23.6545 7.91577 23.7201 7.87191 23.7754 7.81661C23.8307 7.76131 23.8746 7.69567 23.9045 7.62342C23.9345 7.55117 23.9499 7.47373 23.9499 7.39553V6.20528C23.9499 6.04734 23.8871 5.89588 23.7754 5.7842C23.6638 5.67252 23.5123 5.60978 23.3544 5.60978ZM17.2501 9.0009C16.8051 9.0009 16.3701 8.86894 16.0001 8.62171C15.6301 8.37448 15.3417 8.02308 15.1714 7.61194C15.0011 7.20081 14.9565 6.74841 15.0433 6.31195C15.1302 5.87549 15.3444 5.47458 15.6591 5.15991C15.9738 4.84525 16.3747 4.63096 16.8112 4.54414C17.2476 4.45732 17.7 4.50188 18.1111 4.67218C18.5223 4.84247 18.8737 5.13086 19.1209 5.50087C19.3681 5.87088 19.5001 6.3059 19.5001 6.75091C19.5001 7.34764 19.2631 7.91994 18.8411 8.3419C18.4191 8.76385 17.8468 9.0009 17.2501 9.0009Z" fill="#6B6C7E"/>
<path d="M17.7956 14.2999H16.6042C16.2475 14.2995 15.9055 14.1576 15.6533 13.9054C15.401 13.6531 15.2591 13.3111 15.2587 12.9544V12.3799C15.0212 12.2974 14.7892 12.1997 14.5643 12.0874L14.175 12.4778C13.9872 12.6652 13.7482 12.793 13.488 12.8452C13.2278 12.8973 12.9581 12.8715 12.7125 12.771C13.112 13.5254 13.2275 14.3981 13.038 15.2305C12.8485 16.0628 12.3666 16.7995 11.6798 17.3066C10.9931 17.8137 10.1472 18.0574 9.29594 17.9936C8.44468 17.9297 7.64461 17.5625 7.04122 16.9586C6.43783 16.3548 6.0712 15.5544 6.00799 14.7031C5.94478 13.8518 6.18919 13.0061 6.69678 12.3197C7.20437 11.6334 7.94143 11.152 8.77392 10.9631C9.60641 10.7743 10.479 10.8904 11.2331 11.2905C11.1318 11.0448 11.1055 10.7746 11.1574 10.514C11.2093 10.2534 11.3372 10.0139 11.5249 9.82577L11.9152 9.4354C11.803 9.21041 11.7052 8.97843 11.6227 8.7409H11.0456C10.6889 8.7405 10.3469 8.59862 10.0947 8.34637C9.84241 8.09413 9.70052 7.75212 9.70012 7.3954V6.2044C9.70101 5.90526 9.80161 5.61497 9.98601 5.37943C10.1704 5.14389 10.4281 4.97655 10.7183 4.9039C10.6469 4.88545 10.5737 4.87575 10.5 4.87502H8.625C8.46094 4.87379 8.30057 4.92368 8.16617 5.01776C8.03176 5.11185 7.92999 5.24545 7.875 5.40002V6.97202C7.02591 7.18954 6.21759 7.54298 5.48137 8.01865L4.36725 6.9049C4.31153 6.84917 4.24538 6.80496 4.17258 6.7748C4.09977 6.74464 4.02174 6.72911 3.94294 6.72911C3.86413 6.72911 3.7861 6.74464 3.7133 6.7748C3.64049 6.80496 3.57434 6.84917 3.51863 6.9049L2.1045 8.31902C2.04877 8.37474 2.00456 8.44089 1.9744 8.51369C1.94424 8.5865 1.92872 8.66453 1.92872 8.74334C1.92872 8.82214 1.94424 8.90017 1.9744 8.97298C2.00456 9.04578 2.04877 9.11193 2.1045 9.16765L3.21863 10.2814C2.74472 11.0367 2.41621 11.874 2.25 12.75H0.75C0.569528 12.7563 0.396649 12.8242 0.260175 12.9424C0.123701 13.0607 0.0318749 13.2222 0 13.3999L0 15.3998C0.0286458 15.586 0.117474 15.7577 0.252908 15.8887C0.388343 16.0196 0.562935 16.1026 0.75 16.125H2.25C2.41654 16.9776 2.74538 17.7902 3.21863 18.5186L2.1045 19.6328C2.04877 19.6885 2.00456 19.7546 1.9744 19.8274C1.94424 19.9002 1.92872 19.9783 1.92872 20.0571C1.92872 20.1359 1.94424 20.2139 1.9744 20.2867C2.00456 20.3595 2.04877 20.4257 2.1045 20.4814L3.51863 21.8955C3.57434 21.9513 3.64049 21.9955 3.7133 22.0256C3.7861 22.0558 3.86413 22.0713 3.94294 22.0713C4.02174 22.0713 4.09977 22.0558 4.17258 22.0256C4.24538 21.9955 4.31153 21.9513 4.36725 21.8955L5.481 20.7814C6.20956 21.2547 7.02231 21.5835 7.875 21.75V23.25C7.89736 23.437 7.98033 23.6116 8.11122 23.747C8.24211 23.8824 8.41373 23.9713 8.59988 24H10.5998C10.7776 23.9682 10.9391 23.8764 11.0574 23.74C11.1758 23.6035 11.2437 23.4305 11.25 23.25V21.75C12.126 21.5838 12.9633 21.2553 13.7186 20.7814L14.8328 21.8955C14.8885 21.9513 14.9546 21.9955 15.0274 22.0256C15.1002 22.0558 15.1783 22.0713 15.2571 22.0713C15.3359 22.0713 15.4139 22.0558 15.4867 22.0256C15.5595 21.9955 15.6257 21.9513 15.6814 21.8955L17.0955 20.4814C17.1512 20.4257 17.1954 20.3595 17.2256 20.2867C17.2558 20.2139 17.2713 20.1359 17.2713 20.0571C17.2713 19.9783 17.2558 19.9002 17.2256 19.8274C17.1954 19.7546 17.1512 19.6885 17.0955 19.6328L15.9814 18.5186C16.4802 17.7496 16.8349 16.8962 17.028 16.0001H18.6C18.6762 15.9955 18.7508 15.9755 18.819 15.9411C18.8872 15.9068 18.9477 15.8589 18.9969 15.8004C19.046 15.7419 19.0827 15.674 19.1047 15.6009C19.1267 15.5278 19.1336 15.4509 19.125 15.375V13.5C19.1243 13.4264 19.1146 13.3531 19.0961 13.2818C19.0235 13.5719 18.8561 13.8296 18.6206 14.014C18.3851 14.1984 18.0948 14.299 17.7956 14.2999Z" fill="#6B6C7E"/>
</g>
<defs>
<clipPath id="clip0_17799_35132">
<rect width="24" height="24" fill="white"/>
</clipPath>
</defs>
</svg>
